<svg width="60" height="60" viewBox="0 0 60 60" fill="none" xmlns="http://www.w3.org/2000/svg">
  <!-- Moderne Blitze -->
  <g id="lightning" opacity="0.8">
    <!-- Hauptblitz -->
    <path d="M20 15 L35 25 L30 30 L45 15 L35 35 L40 40 L25 30 L30 25 L15 40 Z" 
          fill="currentColor" 
          stroke="currentColor" 
          stroke-width="1" 
          opacity="0.9"/>
    
    <!-- Zusätzliche Blitze -->
    <path d="M15 20 L25 25 L22 28 L30 20 L26 30 L32 32 L20 30 L24 25 L12 32 Z" 
          fill="currentColor" 
          opacity="0.6"/>
    
    <path d="M40 25 L50 30 L47 33 L55 25 L51 35 L57 37 L45 35 L49 30 L37 37 Z" 
          fill="currentColor" 
          opacity="0.4"/>
  </g>
  
  <!-- Moderne E-Symbol -->
  <g id="letter-e">
    <rect x="25" y="20" width="20" height="4" rx="2" fill="currentColor" opacity="0.9"/>
    <rect x="25" y="28" width="15" height="4" rx="2" fill="currentColor" opacity="0.9"/>
    <rect x="25" y="36" width="20" height="4" rx="2" fill="currentColor" opacity="0.9"/>
    <rect x="25" y="20" width="4" height="20" rx="2" fill="currentColor" opacity="0.9"/>
  </g>
  
  <!-- Moderne Akzente -->
  <g id="accents" opacity="0.3">
    <circle cx="30" cy="30" r="2" fill="currentColor"/>
    <circle cx="35" cy="25" r="1" fill="currentColor"/>
    <circle cx="25" cy="35" r="1" fill="currentColor"/>
  </g>
</svg>
