<svg width="60" height="60" viewBox="0 0 60 60" fill="none" xmlns="http://www.w3.org/2000/svg">
  <!-- Elegantes E-Symbol -->
  <g id="letter-e">
    <!-- Hauptbalken -->
    <rect x="20" y="18" width="24" height="6" rx="3" fill="currentColor" opacity="0.9"/>
    <rect x="20" y="27" width="18" height="6" rx="3" fill="currentColor" opacity="0.9"/>
    <rect x="20" y="36" width="24" height="6" rx="3" fill="currentColor" opacity="0.9"/>
    <rect x="20" y="18" width="6" height="24" rx="3" fill="currentColor" opacity="0.9"/>
  </g>
  
  <!-- Moderne Blitze -->
  <g id="lightning" opacity="0.7">
    <path d="M35 12 L42 18 L38 20 L45 12 L40 22 L44 24 L36 20 L40 18 L33 24 Z" 
          fill="currentColor" 
          opacity="0.8"/>
    <path d="M35 36 L42 42 L38 44 L45 36 L40 46 L44 48 L36 44 L40 42 L33 48 Z" 
          fill="currentColor" 
          opacity="0.6"/>
  </g>
  
  <!-- Dekorative Elemente -->
  <g id="decorations" opacity="0.4">
    <circle cx="30" cy="30" r="3" fill="currentColor"/>
    <rect x="28" y="28" width="4" height="4" rx="1" fill="currentColor" opacity="0.6"/>
  </g>
</svg>
